<svg xmlns="http://www.w3.org/2000/svg" viewBox="0 0 117.7 48.5"><g id="Ebene_2" data-name="Ebene 2"><g id="logo-big"><path d="M1.5,38c1.7,0,3.5.2,3.5,5.4,0,4.8-1.6,5-4.1,5H0V38Zm-.1,1.2v8c2.3.1,2.2-2.1,2.2-3.8S3.7,39.1,1.4,39.2Z"/><path d="M6,39.4a.9.9,0,1,1,.9.9A1.06,1.06,0,0,1,6,39.4Zm1.5,9H6.2V41.5H7.5Z"/><path d="M9.9,45.2c0,.6,0,2.2.8,2.2s.8-.8.8-1.3h1.2c0,1.3-.6,2.4-2,2.4-1.9,0-2.1-2.1-2.1-3.5s.2-3.6,2.1-3.6,2.1,2.2,2.1,3.6v.2Zm1.5-.9c0-.5,0-1.8-.8-1.8s-.8,1.2-.8,1.8Z"/><path d="M20.1,39.6a1.75,1.75,0,0,0-1.2-.4,1.18,1.18,0,0,0-1.2,1.3,1.37,1.37,0,0,0,.4,1.1l1,1.1a3.84,3.84,0,0,1,1.5,3,2.45,2.45,0,0,1-2.4,2.7,2.69,2.69,0,0,1-1.5-.5V46.5a2.17,2.17,0,0,0,1.4.5c.9,0,1.2-.7,1.2-1.4,0-2.1-2.9-2.5-2.9-5.2,0-1.5.8-2.6,2.3-2.6a4,4,0,0,1,1.5.3Z"/><path d="M21.6,44.9c0-1.5.2-3.6,2.2-3.6S26,43.4,26,44.9s-.2,3.6-2.2,3.6S21.6,46.4,21.6,44.9Zm3,0c0-.5.1-2.4-.9-2.4s-.9,1.9-.9,2.4-.1,2.4.9,2.4S24.6,45.4,24.6,44.9Z"/><path d="M28.4,42.3h0a1.42,1.42,0,0,1,1.4-.9c1.4,0,1.4,1.2,1.4,2.3v4.8H30V43.7c0-.5-.1-1.1-.8-1.1-.9,0-.8,1-.8,1.6v4.3H27.1V41.6h1.3Z"/><path d="M34,42.3h0a1.42,1.42,0,0,1,1.4-.9c1.4,0,1.4,1.2,1.4,2.3v4.8H35.5V43.7c0-.5-.1-1.1-.8-1.1-.9,0-.8,1-.8,1.6v4.3H32.6V41.6H34Z"/><path d="M39.3,45.2c0,.6,0,2.2.8,2.2s.8-.8.8-1.3h1.2c0,1.3-.6,2.4-2,2.4-1.9,0-2.1-2.1-2.1-3.5s.2-3.6,2.1-3.6,2.1,2.2,2.1,3.6v.2Zm1.6-.9c0-.5,0-1.8-.8-1.8s-.8,1.2-.8,1.8Z"/><path d="M44.7,42.3h0a1.42,1.42,0,0,1,1.4-.9c1.4,0,1.4,1.2,1.4,2.3v4.8H46.2V43.7c0-.5-.1-1.1-.8-1.1-.9,0-.8,1-.8,1.6v4.3H43.3V41.6h1.3v.7Z"/><path d="M51.5,42.9a1.53,1.53,0,0,0-1-.4.81.81,0,0,0-.9.7c0,1.2,2.2,1.2,2.2,3.2a2,2,0,0,1-2,2.1,2,2,0,0,1-1.1-.3V46.9a1.37,1.37,0,0,0,1.1.4.8.8,0,0,0,.9-.9c0-1.2-2.2-1.3-2.2-3.2a1.84,1.84,0,0,1,1.9-1.9,2.66,2.66,0,0,1,1.2.3v1.3Z"/><path d="M54,45.2c0,.6,0,2.2.8,2.2s.8-.8.8-1.3h1.2c0,1.3-.6,2.4-2,2.4-1.9,0-2.1-2.1-2.1-3.5s.2-3.6,2.1-3.6,2.1,2.2,2.1,3.6v.2Zm1.6-.9c0-.5,0-1.8-.8-1.8s-.8,1.2-.8,1.8Z"/><path d="M57.9,39.4a.9.9,0,1,1,.9.9A1.06,1.06,0,0,1,57.9,39.4Zm1.5,9H58.1V41.5h1.3Z"/><path d="M62.3,39.5v2H63v1h-.7v5.9H61V42.5h-.7v-1H61v-2Z"/><path d="M65.1,45.2c0,.6,0,2.2.8,2.2s.8-.8.8-1.3H68c0,1.3-.6,2.4-2,2.4-1.9,0-2.1-2.1-2.1-3.5s.2-3.6,2.1-3.6,2.1,2.2,2.1,3.6v.2Zm1.6-.9c0-.5,0-1.8-.8-1.8s-.8,1.2-.8,1.8Z"/><path d="M74.5,47.5h0c-.3.6-.6,1-1.3,1-1.6,0-1.6-2.5-1.6-3.7s0-3.5,1.7-3.5a1.2,1.2,0,0,1,1.2.9h0V37h1.3V48.4H74.5Zm.1-2.6c0-.5.1-2.4-.8-2.4s-.9,1.9-.9,2.4-.1,2.4.9,2.4C74.6,47.3,74.6,45.5,74.6,44.9Z"/><path d="M78.2,45.2c0,.6,0,2.2.8,2.2s.8-.8.8-1.3H81c0,1.3-.6,2.4-2,2.4-1.9,0-2.1-2.1-2.1-3.5s.2-3.6,2.1-3.6,2.1,2.2,2.1,3.6v.2Zm1.5-.9c0-.5,0-1.8-.8-1.8s-.8,1.2-.8,1.8Z"/><path d="M83.4,42.3h0a1.64,1.64,0,0,1,1.5-1v1.3h-.2c-1,0-1.3.5-1.3,1.4v4.4H82.1V41.5h1.3Z"/><path d="M89.5,38l1,7,.1.8h0l.4-3.5.7-4.3h1.1l1.1,7.7h0l.4-3.3L95,38h1.3L94.5,48.3H93.4l-.8-4.8L92.3,41v-.3h0L92,43.5l-.1.6-.7,4.3H90L88.2,38Z"/><path d="M99.3,47.5h0c-.3.6-.6,1-1.3,1-1.6,0-1.6-2.5-1.6-3.7s0-3.5,1.7-3.5a1.29,1.29,0,0,1,1.2.9h0v-.8h1.3v6.9H99.3Zm-2.6-8.2a.79.79,0,0,1,.8-.8.86.86,0,0,1,.8.8.8.8,0,0,1-1.6,0Zm2.6,5.6c0-.5.1-2.4-.8-2.4s-.9,1.9-.9,2.4-.1,2.4.9,2.4S99.3,45.5,99.3,44.9Zm-.4-5.6a.79.79,0,0,1,.8-.8.86.86,0,0,1,.8.8.8.8,0,0,1-1.6,0Z"/><path d="M103,42.3h0a1.64,1.64,0,0,1,1.5-1v1.3h-.2c-1,0-1.3.5-1.3,1.4v4.4h-1.3V41.5H103Z"/><path d="M106.7,42.3h0a1.5,1.5,0,0,1,1.4-1,1.38,1.38,0,0,1,1.3,1h0a1.5,1.5,0,0,1,1.4-1c1.2,0,1.5.8,1.5,1.7v5.4H111V43.5c0-.5-.1-1-.7-1-.9,0-.8.9-.8,1.5v4.4h-1.3V43.7c0-.5,0-1.2-.7-1.2s-.8.9-.8,1.5v4.4h-1.3V41.5h1.3Z"/><path d="M114.8,45.2c0,.6,0,2.2.8,2.2s.8-.8.8-1.3h1.2c0,1.3-.6,2.4-2,2.4-1.9,0-2.1-2.1-2.1-3.5s.2-3.6,2.1-3.6,2.1,2.2,2.1,3.6v.2Zm1.5-.9c0-.5,0-1.8-.8-1.8s-.8,1.2-.8,1.8Z"/><path d="M7.9,11c2.4,0,4,2.1,4,5S10.3,21.1,8,21.1s-3.9-1.9-3.9-5S5.5,11,7.9,11Zm-4,11.6c1.6,1.7,2.4,2.1,4.6,2.1,4.3,0,7.5-3.8,7.5-8.8S12.8,7.3,8.5,7.3c-1.9,0-2.7.4-4.3,1.8V2a2,2,0,0,0-2-2A2.06,2.06,0,0,0,0,2V22.7a2,2,0,0,0,2.1,1.9,1.88,1.88,0,0,0,1.8-1.9Z"/><path d="M23,9.7V9.1a1.9,1.9,0,0,0-2-1.7,1.93,1.93,0,0,0-2.1,1.7V22.7a2,2,0,0,0,2.1,2,2,2,0,0,0,2-2V15.4c0-1.7,1.2-3.2,3.2-4l.9-.3a1.71,1.71,0,0,0,1.2-1.7,2,2,0,0,0-2.1-2C25.1,7.4,24.2,8,23,9.7Z"/><path d="M37.1,10.6c2.1,0,3.3,1.3,3.8,4.1H33.2C33.7,12,35.1,10.6,37.1,10.6Zm-3.8,6.7h9.8c1.5,0,2-.5,2-1.8A9.63,9.63,0,0,0,43,10a7.67,7.67,0,0,0-5.9-2.7c-4.6,0-8.2,3.8-8.2,8.8a8.3,8.3,0,0,0,8.6,8.6A9.87,9.87,0,0,0,44,22.4a2.33,2.33,0,0,0,.7-1.4A1.69,1.69,0,0,0,43,19.3c-.5,0-.8.1-1.8.8a6.11,6.11,0,0,1-3.4,1,4.32,4.32,0,0,1-3.6-1.7A10.91,10.91,0,0,1,33.3,17.3Z"/><path d="M61,9.8a4.49,4.49,0,0,0-2.4-2,6.2,6.2,0,0,0-2.3-.4,6.37,6.37,0,0,0-3.8,1.2,3.19,3.19,0,0,1-.6.7V9.1a1.77,1.77,0,0,0-1.8-1.7A2,2,0,0,0,48,9.1V22.7a2,2,0,0,0,2.1,2,2,2,0,0,0,2-2v-9a3.1,3.1,0,0,1,3.1-3,3,3,0,0,1,3,3v9a2,2,0,0,0,1.9,2,2,2,0,0,0,2.1-2v-9a3.11,3.11,0,0,1,3.2-2.9,2.82,2.82,0,0,1,2.8,2.9v9a2.09,2.09,0,0,0,2.1,2,2,2,0,0,0,2-2V13.2c0-3.5-2.4-5.8-6-5.8A6.26,6.26,0,0,0,62,8.9,2.57,2.57,0,0,0,61,9.8Z"/><path d="M83.4,10.9c2.4,0,3.9,2.1,3.9,5.1s-1.6,5.1-3.9,5.1-3.9-2.1-3.9-5.2C79.4,13,81.1,10.9,83.4,10.9ZM75.3,16c0,5,3.5,8.8,8.1,8.8s8.1-3.8,8.1-8.7S88,7.4,83.4,7.4,75.3,11.1,75.3,16Z"/><path d="M89.4,4.5a2.6,2.6,0,1,1,5.2,0A2.65,2.65,0,0,1,92,7.1,2.52,2.52,0,0,1,89.4,4.5Zm-.6,0a3.1,3.1,0,1,0,3.1-3.1A3.12,3.12,0,0,0,88.8,4.5Zm2.5-1.3H92c.4,0,.8.1.8.6s-.5.6-1,.6h-.6V3.2Zm0,1.6H92l.9,1.4c.1.2.2.2.3.2s.3-.1.3-.2-.1-.2-.1-.3l-.8-1.2a1,1,0,0,0,.9-1c0-.7-.4-1-1.3-1H91a.35.35,0,0,0-.2.1V6c0,.2.1.4.3.4s.3-.2.3-.4V4.8Z"/><path d="M115.7,7.2H98.5a1.9,1.9,0,0,1-1.9-1.9,2,2,0,0,1,1.9-1.9h17.3a1.9,1.9,0,0,1,1.9,1.9A2,2,0,0,1,115.7,7.2Z"/><path d="M115.7,15.4H98.5a1.9,1.9,0,0,1,0-3.8h17.3a1.9,1.9,0,0,1,1.9,1.9A2,2,0,0,1,115.7,15.4Z"/><path d="M115.7,23.7H98.5a1.9,1.9,0,0,1,0-3.8h17.3a1.9,1.9,0,0,1,1.9,1.9A2.06,2.06,0,0,1,115.7,23.7Z"/></g></g></svg>