<svg
   xmlns:dc="http://purl.org/dc/elements/1.1/"
   xmlns:cc="http://creativecommons.org/ns#"
   xmlns:rdf="http://www.w3.org/1999/02/22-rdf-syntax-ns#"
   xmlns:svg="http://www.w3.org/2000/svg"
   xmlns="http://www.w3.org/2000/svg"
   width="154.24294mm"
   height="45.266327mm"
   viewBox="0 0 154.24293 45.266327"
   version="1.1"
   id="BWT_Logo_SPORT">
  <g
     id="g39"
     transform="matrix(0.35277777,0,0,-0.35277777,-29.806794,192.61927)">
    <path
       d="m 521.7158,520.0625 h -61.918 l -11.23,-32.2 h 17.773 v -67.71 h 36.326 v 67.71 h 19.049 z"
       style="fill: rgb(3, 94, 143);fill-opacity:1;fill-rule:evenodd;stroke:none"
       id="path24" />
    <path
       d="m 418.5811,520.0625 -15.489,-44.017 -11.746,44.017 h -27.365 l -11.747,-44.017 -15.489,44.017 h -36.917 l 34.852,-99.91 h 30.07 l 12.913,48.618 12.913,-48.618 h 30.07 l 34.852,99.91 z"
       style="fill: rgb(3, 94, 143);fill-opacity:1;fill-rule:evenodd;stroke:none"
       id="path28" />
    <path
       d="m 289.667,471.4399 c 7.431,4.649 12.377,12.902 12.377,22.314 0,14.53 -11.779,26.309 -26.309,26.309 h -54.419 v -99.855 -0.056 h 59.76 c 14.56,0 26.362,11.804 26.362,26.364 0,11.551 -7.431,21.36 -17.771,24.924 m -37.888,23.842 h 9.724 c 2.9,0 5.251,-3.006 5.251,-6.714 0,-3.708 -2.351,-6.714 -5.251,-6.714 h -9.724 z m 14.859,-53.206 h -14.763 v 14.607 h 14.763 c 3.238,0 5.863,-3.27 5.863,-7.304 0,-4.033 -2.625,-7.303 -5.863,-7.303"
       style="fill: rgb(3, 94, 143);fill-opacity:1;fill-rule:evenodd;stroke:none"
       id="path40" />
  </g>
  <g
     id="g42"
     transform="matrix(0.35277777,0,0,-0.35277777,31.918627,14.002455)">
    <path
       d="m 0,0 -0.043,0.047 -70.613,39.645 -10e-4,-12.567 -19.821,10.502 v -79.572 c 0,-25.779 20.898,-46.677 46.677,-46.677 5.238,0 10.268,0.875 14.968,2.467 1.957,-0.252 3.947,-0.397 5.972,-0.397 25.569,0 46.298,20.728 46.298,46.298 C 23.437,-23.001 13.993,-7.964 0,0 m -43.801,-81.523 c -21.859,0 -39.578,17.719 -39.578,39.578 V 26.02 l 22.073,-12.273 v -55.692 c 0,-9.668 7.837,-17.505 17.505,-17.505 9.667,0 17.504,7.837 17.504,17.505 0,7.959 -5.317,14.666 -12.589,16.792 v 22.47 c 19.536,-2.421 34.662,-19.07 34.662,-39.262 0,-21.859 -17.719,-39.578 -39.577,-39.578"
       style="fill: rgb(3, 94, 143);fill-opacity:1;fill-rule:evenodd;stroke:none"
       id="path44" />
  </g>
</svg>
