<?xml version="1.0" encoding="utf-8"?>
<!-- Generator: Adobe Illustrator 21.1.0, SVG Export Plug-In . SVG Version: 6.00 Build 0)  -->
<svg version="1.1" id="Layer_1" xmlns="http://www.w3.org/2000/svg" xmlns:xlink="http://www.w3.org/1999/xlink" x="0px" y="0px"
	 viewBox="0 0 134.5 36.1" style="enable-background:new 0 0 134.5 36.1;" xml:space="preserve">
<style type="text/css">
	.st0{fill:#FFFFFF;}
	.st1{fill:#EE4423;}
</style>
<rect x="-0.2" y="-0.1" class="st0" width="134.7" height="36.5"/>
<g>
	<polygon class="st1" points="37.6,19.2 44,19.2 44,16.7 37.6,16.7 37.6,15.3 45.4,15.3 45.4,12.5 33.6,12.5 33.6,23.9 45.7,23.9 
		45.7,20.8 37.6,20.8 	"/>
	<rect x="25.6" y="12.5" class="st1" width="4.2" height="11.4"/>
	<path class="st1" d="M15.4,19.4c-0.2,0.4-0.2,0.8-0.2,0.8s0-0.4-0.2-0.8l-3.3-6.9H6.6l6.1,11.4l5.1,0l6.1-11.4l-5.1,0L15.4,19.4z"
		/>
	<path class="st1" d="M56.9,24.5h-5.3c0,0-0.8,0-0.8-0.7c0-0.6,0.8-0.6,0.8-0.6h8.7v-3.1l-9.4,0c0,0-3.7,0.1-3.7,3.7
		c0,3.7,3.7,3.7,3.7,3.7l5.6,0c0,0,0.7,0,0.7,0.8c0,0.6-0.7,0.6-0.7,0.6h-9V32l9.3,0c0,0,4,0.2,4-3.9C60.8,24.6,56.9,24.5,56.9,24.5
		z"/>
	<path class="st1" d="M89.9,12.5h-4.5l-5.8,11.4h4.5l1.1-2.1h4.9l1.1,2.1h0.2v0h3.9l0,0h0.4L89.9,12.5z M86.3,18.9c0,0,1-2,1.2-2.4
		c0.2-0.4,0.2-0.8,0.2-0.8s0,0.4,0.2,0.8l1.2,2.4L86.3,18.9z"/>
	<path class="st1" d="M106.3,18.7c0,0,0-0.4-0.3-0.7l-4.8-5.5l-4.2,0v11.4h4.2v-6.3c0,0,0,0.4,0.3,0.7l4.6,5.6l4.2,0V12.5l-4,0V18.7
		z"/>
	<path class="st1" d="M123.1,12.5v6.3c0,0,0-0.4-0.3-0.7l-4.8-5.5h-4.2v11.4h4.2v-6.3c0,0,0,0.4,0.3,0.7l4.6,5.6l4.2,0V12.5H123.1z"
		/>
	<path class="st1" d="M71.1,17.2c-0.1,0.4-0.2,1.1-0.2,1.1s-0.1-0.8-0.2-1.1L69,12.5l-5.7,0l0,11.4l3.7,0v-6.8c0,0,0,0.4,0.2,0.8
		l2.6,6h2.5l2.6-6.2c0.2-0.4,0.2-0.8,0.2-0.8v0.8v6.1h3.7V12.5l-5.7,0L71.1,17.2z"/>
	<path class="st1" d="M56.9,10.9h-5.3c0,0-0.8,0-0.8-0.7c0-0.6,0.8-0.6,0.8-0.6h8.7V6.5l-9.4,0c0,0-3.7,0.1-3.7,3.7
		c0,3.7,3.7,3.6,3.7,3.6l5.6,0c0,0,0.7,0,0.7,0.8c0,0.7-0.7,0.7-0.7,0.7h-9v3.1h9.3c0,0,4,0.2,4-3.9C60.8,11,56.9,10.9,56.9,10.9z"
		/>
</g>
</svg>
