<?xml version="1.0" encoding="utf-8"?>
<!-- Generator: Adobe Illustrator 16.0.0, SVG Export Plug-In . SVG Version: 6.00 Build 0)  -->
<!DOCTYPE svg PUBLIC "-//W3C//DTD SVG 1.1//EN" "http://www.w3.org/Graphics/SVG/1.1/DTD/svg11.dtd">
<svg version="1.1" id="Ebene_1" xmlns="http://www.w3.org/2000/svg"  x="0px" y="0px"
	 width="285px" height="168px" viewBox="0 0 285 168" enable-background="new 0 0 285 168" xml:space="preserve">
<g>
	<path fill="#2fb4e9" d="M10.075,121.579H1.172v-12.703h8.903V90.418h16.283v18.457h12.377v12.703H26.358v25.077
		c0,4.487,2.063,6.733,6.19,6.733c0.94,0,1.79-0.04,2.55-0.11c0.76-0.073,1.973-0.29,3.637-0.65v12.157
		c-2.317,0.653-4.144,1.087-5.48,1.304c-1.34,0.216-2.733,0.327-4.18,0.327c-6.587,0-11.4-1.557-14.44-4.667
		c-3.04-3.113-4.56-8.037-4.56-14.767V121.579z M42.318,19.962c4.343,0,7.98,0.96,10.91,2.877c2.934,1.917,5.013,4.613,6.243,8.086
		c2.1-3.4,4.923-6.08,8.47-8.033c3.543-1.953,7.417-2.93,11.617-2.93c6.583,0,11.67,1.827,15.253,5.48
		c3.58,3.657,5.373,8.813,5.373,15.47v37.457H83.898v-33.33c0-7.67-3.187-11.506-9.553-11.506c-3.257,0-5.917,1.14-7.98,3.42
		c-2.06,2.28-3.093,5.193-3.093,8.74v32.677H46.988v-33.33c0-7.67-3.187-11.506-9.553-11.506c-3.26,0-5.92,1.14-7.98,3.42
		c-2.063,2.28-3.097,5.193-3.097,8.74v32.677H10.075v-56.67h15.85v6.08c1.953-2.39,4.36-4.29,7.22-5.7
		C36.005,20.666,39.062,19.962,42.318,19.962 M70.112,167.282c-9.267,0-16.414-2.604-21.443-7.813
		c-5.03-5.213-7.543-12.667-7.543-22.367c0-4.56,0.667-8.684,2.007-12.376c1.34-3.69,3.277-6.84,5.81-9.443
		c2.533-2.607,5.573-4.614,9.12-6.027c3.543-1.41,7.56-2.117,12.05-2.117c4.414,0,8.414,0.707,11.997,2.117
		c3.583,1.413,6.64,3.42,9.173,6.027c2.533,2.603,4.47,5.753,5.81,9.443c1.337,3.693,2.007,7.816,2.007,12.376
		c0,9.7-2.517,17.153-7.547,22.367C86.522,164.679,79.375,167.282,70.112,167.282 M70.112,154.255c8.104,0,12.16-5.717,12.16-17.153
		c0-5.573-1.034-9.79-3.093-12.646c-2.063-2.86-5.087-4.29-9.067-4.29s-7.003,1.43-9.066,4.29c-2.06,2.856-3.094,7.073-3.094,12.646
		C57.952,148.539,62.005,154.255,70.112,154.255 M104.202,165.545V90.418h16.284v23.994c1.957-2.317,4.343-4.11,7.167-5.374
		c2.823-1.267,5.863-1.9,9.12-1.9c7.744,0,13.733,2.624,17.966,7.87s6.351,12.65,6.351,22.203c0,4.487-0.597,8.577-1.79,12.267
		c-1.193,3.693-2.914,6.857-5.157,9.5c-2.243,2.64-4.923,4.687-8.033,6.133c-3.113,1.447-6.586,2.17-10.423,2.17
		c-3.187,0-6.117-0.634-8.793-1.897c-2.68-1.27-4.96-3.17-6.84-5.7v5.86H104.202z M160.222,60.672
		c-2.1,12.957-10.823,19.434-26.167,19.434c-9.263,0-16.374-2.604-21.33-7.817c-4.96-5.21-7.437-12.663-7.437-22.363
		c0-4.56,0.687-8.687,2.06-12.376c1.376-3.69,3.313-6.84,5.81-9.447c2.497-2.604,5.537-4.613,9.12-6.023
		c3.58-1.413,7.58-2.117,11.997-2.117c8.466,0,15.017,2.387,19.649,7.164c4.63,4.776,6.947,11.546,6.947,20.303v6.73h-39.083
		c0.36,8.83,4.487,13.247,12.376,13.247c5.717,0,9.12-2.243,10.207-6.733H160.222z M120.378,138.188
		c0,5.063,0.993,8.994,2.983,11.78c1.99,2.783,4.903,4.18,8.74,4.18c3.91,0,6.914-1.466,9.01-4.396
		c2.1-2.933,3.15-7.077,3.15-12.433c0-5.427-1.05-9.554-3.15-12.377c-2.097-2.82-5.1-4.233-9.01-4.233
		c-3.69,0-6.566,1.394-8.63,4.18c-2.063,2.787-3.093,6.713-3.093,11.78V138.188z M145.021,43.302
		c0-7.383-3.729-11.074-11.183-11.074c-3.62,0-6.477,0.977-8.577,2.93c-2.1,1.957-3.22,4.67-3.363,8.144H145.021z M165.976,0.852
		h16.72v13.68h-16.72V0.852z M166.191,21.699h16.284v56.67h-16.284V21.699z M166.191,90.418h16.284v75.127h-16.284V90.418z
		 M242.515,60.672c-2.1,12.957-10.823,19.434-26.166,19.434c-9.264,0-16.373-2.604-21.333-7.817
		c-4.957-5.21-7.434-12.663-7.434-22.363c0-4.56,0.687-8.687,2.06-12.376c1.374-3.69,3.313-6.84,5.811-9.447
		c2.496-2.604,5.536-4.613,9.116-6.023c3.583-1.413,7.583-2.117,11.997-2.117c8.47,0,15.02,2.387,19.653,7.164
		c4.63,4.776,6.946,11.546,6.946,20.303v6.73h-39.083c0.359,8.83,4.486,13.247,12.376,13.247c5.717,0,9.12-2.243,10.207-6.733
		H242.515z M242.515,147.852c-2.1,12.953-10.823,19.43-26.166,19.43c-9.264,0-16.373-2.604-21.333-7.813
		c-4.957-5.213-7.434-12.667-7.434-22.367c0-4.56,0.687-8.684,2.06-12.376c1.374-3.69,3.313-6.84,5.811-9.443
		c2.496-2.607,5.536-4.614,9.116-6.027c3.583-1.41,7.583-2.117,11.997-2.117c8.47,0,15.02,2.39,19.653,7.167
		c4.63,4.777,6.946,11.543,6.946,20.3v6.73h-39.083c0.359,8.83,4.486,13.247,12.376,13.247c5.717,0,9.12-2.243,10.207-6.73H242.515z
		 M227.315,43.302c0-7.383-3.73-11.074-11.184-11.074c-3.62,0-6.477,0.977-8.577,2.93c-2.1,1.957-3.22,4.67-3.366,8.144H227.315z
		 M227.315,130.479c0-7.38-3.73-11.073-11.184-11.073c-3.62,0-6.477,0.977-8.577,2.934c-2.1,1.953-3.22,4.667-3.366,8.14H227.315z
		 M278.775,20.722c1.229,0,2.223,0.037,2.986,0.106c0.76,0.073,1.717,0.29,2.877,0.653v14.437c-1.017-0.217-2.137-0.397-3.367-0.543
		c-1.229-0.144-2.316-0.217-3.257-0.217c-1.883,0-3.636,0.29-5.267,0.87c-1.626,0.58-3.04,1.356-4.232,2.333
		c-1.193,0.977-2.117,2.173-2.768,3.583c-0.653,1.41-0.977,2.914-0.977,4.507v31.917h-16.286v-56.67h15.85v6.403
		c1.811-2.313,3.943-4.124,6.407-5.427C273.202,21.372,275.879,20.722,278.775,20.722 M278.775,107.898
		c1.229,0,2.223,0.037,2.986,0.107c0.76,0.073,1.717,0.29,2.877,0.653v14.44c-1.017-0.217-2.137-0.4-3.367-0.543
		c-1.229-0.146-2.316-0.216-3.257-0.216c-1.883,0-3.636,0.287-5.267,0.867c-1.626,0.58-3.04,1.356-4.232,2.336
		c-1.193,0.977-2.117,2.17-2.768,3.58c-0.653,1.413-0.977,2.913-0.977,4.506v31.917h-16.286v-56.67h15.85v6.407
		c1.811-2.317,3.943-4.127,6.407-5.43C273.202,108.549,275.879,107.898,278.775,107.898"/>
</g>
</svg>
