<?xml version="1.0" encoding="utf-8"?>
<!-- Generator: Adobe Illustrator 19.2.1, SVG Export Plug-In . SVG Version: 6.00 Build 0)  -->
<svg version="1.1" id="layer" xmlns="http://www.w3.org/2000/svg" xmlns:xlink="http://www.w3.org/1999/xlink" x="0px" y="0px"
	 viewBox="0 0 652 652" style="enable-background:new 0 0 652 652;" xml:space="preserve">
<style type="text/css">
	.st0{fill:#002D59;}
	.st1{fill:#FFFFFF;}
</style>
<rect x="67.5" y="70.9" class="st0" width="506.6" height="500"/>
<g>
	<path class="st1" d="M384.7,333.3v-16.1c0-6.1,3.6-10,10.2-10.9c2.6-0.3,3.9-0.1,5.3,0.2v-10.9c-9.5,0-14,2.4-16,9.1h-0.2V297
		h-13.8v36.4L384.7,333.3z"/>
	<path class="st1" d="M456.8,321.6c2.5,10.4,12.7,13.5,25.8,13.5c10.2,0,21.1-3.8,21.1-13.8c0-15.2-31.1-9.4-31.1-15.7
		c0-2.4,4.7-3.1,7.1-3.1c2,0.1,5.2,0.6,6.2,1.3c1,0.8,2.2,1.6,2.4,3.1H502c-2.5-7.9-11.3-12.1-21.7-12.1c-12.6,0-22.6,4-22.6,13.4
		c0,14.4,31.1,8.8,31.1,15.5c0,2.8-4.9,3.5-8,3.4c-2.1-0.1-4.8-0.4-6.8-1.8c-1.2-0.6-2.4-2.3-2.7-3.8H456.8z"/>
	<path class="st1" d="M328.6,310.7c0.7-4.3,4.1-7.7,9.5-7.7c5.3,0,8.8,3.4,9.4,7.7H328.6z M347.5,323c-1.9,3.2-5.4,4-9.2,4
		c-5.8,0-9.5-3.1-10-8.7h35c1.5-10.5-5.7-23.2-25-23.2c-15,0-25.7,7.1-25.7,20.7c0,12.8,12,19.4,25.6,19.4
		c10.2,0,19.8-3.8,23.7-12.2H347.5z"/>
	<path class="st1" d="M232.3,297.1v20c0,4.5-3,8.7-8.3,8.7c-5.3,0-8.3-4.3-8.3-9.1v-19.6l-14.5,0v21.4c0,10.6,8.9,16.3,17.8,16.3
		c5.2,0,9.9-1.8,13.6-5.5h0.2v4.1h14.1v-36.3H232.3z"/>
	<path class="st1" d="M435.8,296.8v20c0,4.5-3,8.7-8.3,8.7c-5.3,0-8.3-4.3-8.3-9.1v-19.6l-14.5-0.1l0,21.4
		c0,10.6,8.9,16.3,17.8,16.3c5.2,0,9.9-1.8,13.6-5.5h0.2v4.1h14.1v-36.3H435.8z"/>
	<rect x="137.9" y="348.8" class="st1" width="363.7" height="4"/>
	<path class="st1" d="M137.9,333.9l36.4-0.1c14.3,0.2,20.4-7.3,20.4-14.8c0-6.5-5-11.6-13-12.5l-0.1,0.1c6.9-1.1,11.3-5.7,10.8-12.3
		c-0.4-4.8-2.5-12.4-22.3-11.9h-32.3V333.9z M168.1,292.3c6.4,0,8,1.9,8,4.8c0,3.2-1.6,5.8-8,5.8h-14.9v-10.6H168.1z M169.3,312
		c5.8,0,8.1,2,8.1,6.4c0,3.9-2.4,5.7-11.7,5.7h-12.5v-12H169.3z"/>
	<path class="st1" d="M137.9,333.9l36.4-0.1c14.3,0.2,20.4-7.3,20.4-14.8c0-6.5-5-11.6-13-12.5l-0.1,0.1c6.9-1.1,11.3-5.7,10.8-12.3
		c-0.4-4.8-2.5-12.4-22.3-11.9h-32.3V333.9z M168.1,292.3c6.4,0,8,1.9,8,4.8c0,3.2-1.6,5.8-8,5.8h-14.9v-10.6H168.1z M169.3,312
		c5.8,0,8.1,2,8.1,6.4c0,3.9-2.4,5.7-11.7,5.7h-12.5v-12H169.3z"/>
	<path class="st1" d="M269.5,315.1c0-5.9,5-10.7,11.1-10.7c6.1,0,11.1,4.8,11.1,10.7c0,5.9-5,10.7-11.1,10.7
		C274.4,325.8,269.5,321,269.5,315.1 M291,299.6c-3.7-3.4-9.4-4.3-14.4-4.3c-15.3,0.2-22.6,11.8-22.6,20.5
		c0,12.2,13.2,19.3,22.8,19.3c6.3,0,11.9-1.9,14.5-5.7h0.2v4.4h14.3v-51.1H291V299.6z"/>
</g>
</svg>
